<?xml version="1.0" standalone="no"?>
<svg viewBox="0 0 200 200" xmlns="http://www.w3.org/2000/svg">
  <path fill="#CFFAFE" d="M44.2,-77.9C55.8,-69.8,62.8,-55,71,-41C79.2,-26.9,88.6,-13.4,87.4,-0.7C86.2,12,74.3,24,64.8,35.9C55.4,47.9,48.3,59.7,38,69.5C27.6,79.3,13.8,86.9,0.1,86.7C-13.5,86.5,-27.1,78.5,-38.9,69.5C-50.7,60.5,-60.7,50.7,-65.9,39C-71.1,27.3,-71.3,13.6,-73.7,-1.4C-76.1,-16.4,-80.6,-32.8,-74.4,-42.7C-68.2,-52.6,-51.3,-56.1,-37.1,-62.7C-22.9,-69.3,-11.5,-79.1,2.4,-83.3C16.3,-87.5,32.6,-86,44.2,-77.9Z" transform="translate(100 100)" />
</svg>
