<?xml version="1.0" standalone="no"?>
<svg viewBox="0 0 200 200" xmlns="http://www.w3.org/2000/svg">
  <path fill="#FEE2E2" d="M38,-61.1C51.3,-58.1,65.7,-52.1,71.1,-41.5C76.5,-30.8,73,-15.4,72,-0.6C71,14.2,72.5,28.5,67.2,39.3C61.8,50.1,49.6,57.4,37.3,63.5C24.9,69.6,12.5,74.3,-1.2,76.5C-14.9,78.6,-29.9,78.1,-41.3,71.5C-52.7,65,-60.6,52.3,-65.4,39.3C-70.2,26.4,-71.9,13.2,-72.6,-0.4C-73.4,-14,-73.1,-28.1,-68,-40.4C-62.9,-52.8,-52.9,-63.5,-40.7,-67.2C-28.6,-70.9,-14.3,-67.6,-1,-65.9C12.3,-64.2,24.6,-64.1,38,-61.1Z" transform="translate(100 100)" />
</svg>
