<?xml version="1.0" standalone="no"?>
<svg viewBox="0 0 200 200" xmlns="http://www.w3.org/2000/svg">
  <path fill="#FEE2E2" d="M46,-76.6C59.9,-71.6,71.8,-60,78.4,-46.1C85.1,-32.2,86.5,-16.1,82.7,-2.2C78.9,11.7,69.9,23.4,61.2,33.8C52.6,44.2,44.3,53.3,34.2,61C24,68.8,12,75.1,-1.1,77.1C-14.2,79,-28.5,76.5,-40,69.6C-51.6,62.7,-60.5,51.4,-67.8,39C-75.2,26.7,-81,13.3,-80.7,0.1C-80.5,-13.1,-74.2,-26.1,-65.9,-36.9C-57.7,-47.7,-47.6,-56.3,-36.3,-62.7C-24.9,-69.2,-12.5,-73.6,1.8,-76.7C16,-79.8,32.1,-81.5,46,-76.6Z" transform="translate(100 100)" />
</svg>
