<?xml version="1.0" standalone="no"?>
<svg viewBox="0 0 200 200" xmlns="http://www.w3.org/2000/svg">
  <path fill="#CFFAFE" d="M43.6,-73.2C58,-67.2,72.2,-58.5,78.1,-45.9C84,-33.3,81.6,-16.6,81.5,-0.1C81.3,16.5,83.5,32.9,77.5,45.4C71.5,57.9,57.4,66.4,43.1,74.8C28.8,83.1,14.4,91.3,-1,93C-16.3,94.6,-32.7,89.7,-42.7,78.9C-52.8,68.2,-56.5,51.5,-62.7,37.3C-68.8,23.2,-77.3,11.6,-77.5,-0.1C-77.7,-11.8,-69.6,-23.7,-61,-33.5C-52.4,-43.4,-43.2,-51.2,-33,-59.7C-22.8,-68.1,-11.4,-77.1,1.6,-79.8C14.6,-82.6,29.2,-79.2,43.6,-73.2Z" transform="translate(100 100)" />
</svg>
